<?xml version="1.0" encoding="UTF-8"?>
<svg enable-background="new 0 0 1866.187 1632.163" space="preserve" version="1.1" viewBox="0 0 1661.3 1444.5" xmlns="http://www.w3.org/2000/svg">
<g transform="translate(-154.86 -156.52)">
<polygon points="1565.4 562.79 1588.7 361.49 1588.8 361.49 1813.4 554.74" fill="#e4b50a"/>
<polygon points="1565.4 562.79 1532.6 845.46 1258.8 580.05 1588.7 360.86 1588.7 361.49" fill="#e5de00"/>
<polygon points="932.04 759.04 1532.6 845.46 1011.8 1051.4 1011.4 1051.5 1011.3 1051.3 932.6 759.59" fill="#6dc9ee"/>
<polygon points="931.31 758.41 850.93 184.55 1258.8 580.05 1532.6 845.46 932.04 759.04" fill="#80be7b"/>
<polygon points="520.6 1596.9 520.11 1596.4 831.9 961.52 931.31 758.96 931.39 758.96 932.04 759.04 932.6 759.59 1011.3 1051.3" fill="#eb76a7"/>
<polygon points="931.31 758.41 932.04 759.04 931.39 758.96"/>
<polygon points="931.31 758.96 831.9 961.52 158.98 411.87 554.38 411.87 555.11 411.16 931.31 758.41 931.39 758.96" fill="#8d5197"/>
<polygon points="555.11 411.16 284.68 161.53 850.93 184.55 931.31 758.41" fill="#0476b8"/>
</g>
<g transform="translate(-154.86 -156.52)">
<path d="m933.04 758.02 76.812 288.6-2.885 0.773s-70.529-140.11-100.98-88.575l-384.7 634.52z" fill="#e9609b"/>
</g>
<g transform="translate(-154.86 -156.52)">
<path d="m931.15 757.63-96.492 198.39s45.029-163.52 16.082-182.82c0 0-141.52-176.9-344.15-294.3 0 0-61.111-53.07-348.46-67.544h396.71z" fill="#764382"/>
</g>
<g transform="translate(-154.86 -156.52)">
<path d="m1533.7 843.44 0.129 0.257-522.21 206.75-78.287-291.15c75.328 158.63 104.6 191.44 114.12 198.19 0.515 0.965 1.351 1.801 2.316 2.316l2.251 2.123c21.679 24.381 481.69-118.49 481.69-118.49z" fill="#00a3e2"/>
</g>
<g transform="translate(-154.86 -156.52)">
<path d="m1526.1 843.06-594.9-82.725-78.737-565.44c49.082 160.05 123.64 462.58 158.7 492.75 2.38 3.345 5.404 6.176 9.135 8.363 48.31 37.76 344.47 102.22 505.81 147.05z" fill="#00a57a"/>
</g>
<g transform="translate(-154.86 -156.52)">
<path d="m851.09 184.45 78.851 572.66s-157.19-452.29-192.97-481.05c0 0 0-0.064-0.064-0.064-20.662-43.471-453.86-114.75-453.86-114.75z" fill="#1c63a9"/>
</g>
<g transform="translate(-154.86 -156.52)">
<path d="m1813.5 553.97-247.66 8.555 22.515-200.51s2.637 147.82 24.444 156.51c14.731 19.363 200.7 35.445 200.7 35.445z" fill="#d79617"/>
</g>
<g transform="translate(-154.86 -156.52)">
<path d="m1587.3 360.98-53.585 484.58-274.36-264.77c5.854 3.795 200.19 129.49 228.11 119.14h0.643c0.45 0 0.836-0.128 1.158-0.257 0.772-0.128 1.608-0.321 2.444-0.708 28.175-3.024 95.591-337.98 95.591-337.98z" fill="#d7bb00"/>
</g>
<g transform="translate(-154.86 -156.52)">
<path d="m1263.1 582.98c29.089-19.338 58.178-38.677 87.267-58.015l159.88-106.29c26.636-17.708 53.272-35.415 79.908-53.123 4.006-2.663 0.255-9.162-3.785-6.476l-247.15 164.3c-26.636 17.708-53.272 35.415-79.908 53.122-4.007 2.665-0.256 9.164 3.785 6.478z" fill="#fff"/>
<path d="m1585.8 365.01c31.895 27.341 63.79 54.683 95.684 82.024 40.752 34.935 81.505 69.87 122.26 104.8 1.973 1.691 3.945 3.382 5.918 5.073 3.651 3.129 8.981-2.151 5.304-5.304-31.895-27.341-63.79-54.683-95.684-82.024-40.752-34.935-81.505-69.87-122.26-104.8-1.973-1.691-3.945-3.382-5.918-5.073-3.651-3.129-8.982 2.151-5.304 5.304z" fill="#fff"/>
<path d="m1812.3 551.17c-46.01 1.282-92.019 2.564-138.03 3.846-36.051 1.004-72.102 2.009-108.15 3.014-4.826 0.134-4.839 7.635 0 7.5 46.01-1.282 92.019-2.564 138.03-3.846 36.051-1.004 72.102-2.009 108.15-3.014 4.826-0.134 4.839-7.634 0-7.5z" fill="#fff"/>
<path d="m1584.2 363.15-10.359 89.256c-7.257 62.528-14.515 125.06-21.772 187.58-6.408 55.211-12.816 110.42-19.225 165.63-1.506 12.98-3.013 25.96-4.52 38.941-0.557 4.799 6.949 4.746 7.5 0l10.359-89.256c7.257-62.528 14.515-125.06 21.772-187.58 6.408-55.211 12.816-110.42 19.225-165.63 1.506-12.98 3.013-25.96 4.52-38.941 0.557-4.799-6.95-4.745-7.5 0z" fill="#fff"/>
<path d="m1534.1 841.72-36.633-35.523c-31.571-30.616-63.143-61.231-94.714-91.847-43.339-42.027-86.679-84.054-130.02-126.08-47.515-46.077-95.03-92.153-142.54-138.23-44.099-42.764-88.197-85.527-132.3-128.29-33.09-32.088-66.179-64.176-99.269-96.264-14.489-14.05-28.977-28.1-43.466-42.15-0.133-0.129-0.267-0.259-0.401-0.389-3.472-3.367-8.78 1.932-5.303 5.304 12.211 11.841 24.422 23.682 36.632 35.523 31.571 30.616 63.143 61.231 94.714 91.846 43.339 42.027 86.679 84.055 130.02 126.08 47.515 46.076 95.03 92.153 142.54 138.23 44.099 42.764 88.197 85.527 132.3 128.29 33.09 32.088 66.179 64.176 99.269 96.264 14.489 14.05 28.977 28.1 43.466 42.15 0.134 0.129 0.267 0.259 0.4 0.389 3.473 3.367 8.782-1.931 5.305-5.303z" fill="#fff"/>
<path d="m852.12 181.84c-26.327-1.174-52.654-2.349-78.981-3.523-59.471-2.653-118.94-5.306-178.41-7.959-63.349-2.826-126.7-5.652-190.05-8.479-37.96-1.693-75.92-3.387-113.88-5.08-2.101-0.094-4.201-0.188-6.302-0.281-4.837-0.216-4.816 7.285 0 7.5 26.327 1.174 52.654 2.349 78.981 3.523 59.471 2.653 118.94 5.306 178.41 7.959 63.349 2.826 126.7 5.652 190.05 8.479 37.96 1.693 75.92 3.387 113.88 5.08 2.101 0.094 4.201 0.188 6.302 0.281 4.838 0.216 4.817-7.285 0-7.5z" fill="#fff"/>
<path d="m281.84 162.92c13.316 12.318 26.632 24.637 39.948 36.956 33.969 31.424 67.938 62.848 101.91 94.272 45.652 42.232 91.304 84.463 136.96 126.7l145.1 134.23c42.109 38.954 84.217 77.908 126.33 116.86 26.882 24.869 53.765 49.738 80.648 74.606 5.09 4.709 10.181 9.418 15.271 14.127 3.544 3.278 8.861-2.013 5.304-5.304-13.316-12.318-26.633-24.637-39.949-36.956-33.969-31.424-67.938-62.848-101.91-94.272-45.652-42.232-91.303-84.463-136.96-126.7l-145.1-134.23c-42.108-38.954-84.217-77.908-126.33-116.86-26.883-24.869-53.766-49.738-80.648-74.606-5.09-4.709-10.181-9.418-15.271-14.127-3.544-3.278-8.861 2.013-5.303 5.304z" fill="#fff"/>
<path d="m935.59 757.54c-3.589-25.746-7.178-51.491-10.766-77.237-8.161-58.546-16.322-117.09-24.482-175.64-8.825-63.313-17.65-126.62-26.476-189.94-5.582-40.044-11.164-80.087-16.745-120.13-0.465-3.333-0.929-6.665-1.394-9.998-0.666-4.773-7.891-2.734-7.232 1.994 3.589 25.746 7.178 51.491 10.766 77.236 8.161 58.547 16.322 117.09 24.483 175.64 8.825 63.313 17.65 126.62 26.475 189.94 5.582 40.043 11.164 80.087 16.745 120.13 0.465 3.333 0.929 6.665 1.394 9.998 0.665 4.774 7.891 2.735 7.232-1.993z" fill="#fff"/>
<path d="m930.75 762.13c24.773 3.578 49.547 7.157 74.321 10.735 57.265 8.271 114.53 16.543 171.79 24.815 64.172 9.27 128.34 18.539 192.52 27.809 45.496 6.572 90.992 13.144 136.49 19.715l23.388 3.378c4.729 0.683 6.766-6.543 1.994-7.232-24.773-3.578-49.547-7.157-74.32-10.735-57.265-8.271-114.53-16.543-171.79-24.815-64.172-9.27-128.34-18.539-192.52-27.809-45.496-6.572-90.992-13.144-136.49-19.715l-23.388-3.378c-4.73-0.683-6.767 6.543-1.995 7.232z" fill="#fff"/>
<path d="m929.24 756.82c-7.599 15.446-15.198 30.892-22.797 46.337l-58.8 119.52c-26.806 54.484-53.611 108.97-80.417 163.45-29.215 59.382-58.43 118.76-87.646 178.15-26.83 54.533-53.659 109.07-80.488 163.6-19.648 39.936-39.296 79.873-58.944 119.81l-23.013 46.776h-1e-3c-2.126 4.322 4.341 8.125 6.477 3.785 7.599-15.445 15.198-30.892 22.797-46.337l58.8-119.52c26.806-54.485 53.611-108.97 80.417-163.45 29.215-59.382 58.43-118.76 87.646-178.15 26.83-54.533 53.659-109.07 80.488-163.6 19.648-39.937 39.296-79.873 58.944-119.81l23.013-46.776s0-1e-3 1e-3 -1e-3c2.126-4.322-4.342-8.125-6.477-3.785z" fill="#fff"/>
<path d="m523.83 1599.8c14.242-15.838 28.484-31.677 42.726-47.516 34.868-38.777 69.736-77.554 104.6-116.33 43.708-48.608 87.416-97.216 131.12-145.82 40.761-45.331 81.522-90.662 122.28-135.99 26.028-28.946 52.057-57.893 78.085-86.839 3.806-4.232 7.612-8.465 11.418-12.698 3.224-3.585-2.063-8.907-5.304-5.304-14.242 15.839-28.483 31.677-42.726 47.516-34.868 38.777-69.736 77.554-104.6 116.33-43.708 48.608-87.416 97.216-131.12 145.82-40.761 45.331-81.522 90.663-122.28 135.99-26.028 28.946-52.057 57.893-78.085 86.839-3.806 4.232-7.612 8.465-11.418 12.698-3.223 3.585 2.064 8.906 5.304 5.302z" fill="#fff"/>
<path d="m1014.8 1051.5c-10.611-39.859-21.221-79.719-31.832-119.58-14.401-54.101-28.803-108.2-43.204-162.3-1.153-4.33-2.305-8.66-3.458-12.989-1.243-4.669-8.478-2.686-7.232 1.994 10.611 39.859 21.221 79.719 31.832 119.58 14.401 54.101 28.803 108.2 43.204 162.3 1.153 4.33 2.305 8.66 3.458 12.989 1.243 4.669 8.478 2.685 7.232-1.994z" fill="#fff"/>
<path d="m1013.9 1055.5c24.812-9.907 49.625-19.813 74.438-29.72 55.685-22.232 111.37-44.464 167.06-66.697 58.428-23.327 116.86-46.654 175.28-69.981 33.041-13.192 66.082-26.383 99.122-39.575 1.087-0.434 2.174-0.868 3.261-1.302 4.435-1.771 2.502-9.027-1.994-7.232-24.812 9.907-49.625 19.813-74.438 29.72-55.685 22.232-111.37 44.464-167.06 66.697-58.428 23.327-116.86 46.654-175.28 69.981-33.041 13.192-66.082 26.383-99.122 39.575-1.087 0.434-2.174 0.868-3.261 1.302-4.434 1.771-2.502 9.027 1.994 7.232z" fill="#fff"/>
<path d="m553.86 406.73h-395.09c-4.836 0-4.836 7.5 0 7.5h395.09c4.837 0 4.837-7.5 0-7.5z" fill="#fff"/>
<path d="m156.13 413.13c14.181 11.624 28.363 23.248 42.544 34.872 36.089 29.581 72.178 59.162 108.27 88.744 48.314 39.601 96.628 79.203 144.94 118.8 50.856 41.685 101.71 83.369 152.57 125.05 43.715 35.831 87.43 71.663 131.14 107.49 26.89 22.041 53.781 44.082 80.671 66.124l12.36 10.131c3.707 3.039 9.046-2.235 5.303-5.304-14.181-11.624-28.363-23.248-42.544-34.872-36.089-29.581-72.178-59.163-108.27-88.744-48.314-39.601-96.628-79.203-144.94-118.8-50.856-41.685-101.71-83.37-152.57-125.06-43.715-35.831-87.43-71.663-131.14-107.49-26.89-22.041-53.781-44.082-80.671-66.124l-12.36-10.131c-3.707-3.037-9.047 2.236-5.303 5.305z" fill="#fff"/>
</g>
</svg>
