<?xml version="1.0" encoding="utf-8"?>
<!-- Generator: Adobe Illustrator 24.1.1, SVG Export Plug-In . SVG Version: 6.00 Build 0)  -->
<svg version="1.1"
	 id="svg3852" inkscape:export-filename="E:\DiDjCodt\Desktop\logo rezel.png" inkscape:export-xdpi="96" inkscape:export-ydpi="96" inkscape:version="0.92.1 r15371" sodipodi:docname="logo rezel Tshirt.svg" xmlns:cc="http://creativecommons.org/ns#" xmlns:dc="http://purl.org/dc/elements/1.1/" xmlns:inkscape="http://www.inkscape.org/namespaces/inkscape" xmlns:rdf="http://www.w3.org/1999/02/22-rdf-syntax-ns#" xmlns:sodipodi="http://sodipodi.sourceforge.net/DTD/sodipodi-0.dtd" xmlns:svg="http://www.w3.org/2000/svg"
	 xmlns="http://www.w3.org/2000/svg" xmlns:xlink="http://www.w3.org/1999/xlink" x="0px" y="0px" viewBox="0 0 612 792"
	 style="enable-background:new 0 0 612 792;" xml:space="preserve">
<style type="text/css">
	.st0{fill:none;stroke:#FFFFFF;stroke-width:9.18;stroke-linecap:round;stroke-linejoin:round;stroke-miterlimit:10;}
	.st1{fill:none;stroke:#FFFFFF;stroke-width:9.18;stroke-miterlimit:10;}
	.st2{fill-rule:evenodd;clip-rule:evenodd;fill:#FFFFFF;stroke:#FFFFFF;stroke-miterlimit:10;}
</style>
<sodipodi:namedview  bordercolor="#666666" borderopacity="1" gridtolerance="10" guidetolerance="10" id="namedview3854" inkscape:current-layer="svg3852" inkscape:cx="329.73194" inkscape:cy="628.18038" inkscape:pageopacity="0" inkscape:pageshadow="2" inkscape:window-height="1017" inkscape:window-maximized="1" inkscape:window-width="1920" inkscape:window-x="1912" inkscape:window-y="1072" inkscape:zoom="0.848" objecttolerance="10" pagecolor="#ffffff" showgrid="false">
	</sodipodi:namedview>
<path id="path3858" inkscape:connector-curvature="0" sodipodi:nodetypes="cccccccccccccccc" class="st0" d="M244.8,120.6
	l-61.2,55.1v122.4L159.1,445h24.5v24.5L306,426.6l122.4,42.8V445h24.5l-24.5-146.9V175.7l-61.2-55.1v55.1H244.8V120.6z"/>
<path id="path3862" inkscape:connector-curvature="0" sodipodi:nodetypes="cc" class="st1" d="M428.4,298.1l-117.5-41.6"/>
<path id="path3864" inkscape:connector-curvature="0" sodipodi:nodetypes="ccc" class="st1" d="M301.1,256.5l-117.5,41.6v146.6"/>
<path id="path3866" inkscape:connector-curvature="0" sodipodi:nodetypes="ccc" class="st1" d="M183.6,298.1L306,426.6l122.4-128.5"
	/>
<path id="path3868" inkscape:connector-curvature="0" class="st0" d="M263.3,441.7l42.7,61.4l42-61.9"/>
<path id="path3872" inkscape:connector-curvature="0" sodipodi:nodetypes="cc" class="st0" d="M244.8,175.7h-61.2"/>
<path id="path3874" inkscape:connector-curvature="0" sodipodi:nodetypes="cc" class="st0" d="M367.2,175.7h61.2"/>
<path id="path3876" inkscape:connector-curvature="0" sodipodi:nodetypes="cc" class="st1" d="M183.6,194
	c71.3,0,122.4,24.5,122.4,98"/>
<path id="path3897" inkscape:connector-curvature="0" sodipodi:nodetypes="ccc" class="st1" d="M306,175.7v42.8l-12.2,21.4"/>
<path id="path3899" inkscape:connector-curvature="0" sodipodi:nodetypes="cc" class="st1" d="M306,218.5l12.2,21.4"/>
<path id="path3876-3" inkscape:connector-curvature="0" sodipodi:nodetypes="cc" class="st1" d="M428.4,194
	c-71.1,0-122.1,24.5-122.1,97.9"/>
<path id="path3916" inkscape:connector-curvature="0" sodipodi:nodetypes="cc" class="st1" d="M428.4,298.1V445"/>
<ellipse id="path3918" class="st2" cx="242" cy="235" rx="15.6" ry="15.3"/>
<ellipse id="path3918-5" class="st2" cx="364.4" cy="235" rx="15.6" ry="15.3"/>
<g id="text5219" transform="scale(0.99797369,1.0020304)">
	
		<path id="path4545" inkscape:original="M 90.183594 738.5 L 90.183594 868.23633 L 133.42773 868.23633 L 133.42773 824.99219 L 155.05078 824.99219 L 155.05078 846.61523 L 176.67383 846.61523 L 176.67383 824.99219 L 198.29688 824.99219 L 198.29688 803.36914 L 219.91992 803.36914 L 219.91992 760.12305 L 198.29688 760.12305 L 198.29688 738.5 L 90.183594 738.5 z M 176.67383 846.61523 L 176.67383 868.23633 L 219.91992 868.23633 L 219.91992 846.61523 L 176.67383 846.61523 z M 263.16406 738.5 L 263.16406 868.23633 L 392.90234 868.23633 L 392.90234 846.61523 L 306.41016 846.61523 L 306.41016 803.36914 L 371.2793 803.36914 L 371.2793 781.74609 L 306.41016 781.74609 L 306.41016 760.12305 L 392.90234 760.12305 L 392.90234 738.5 L 263.16406 738.5 z M 436.14648 738.5 L 436.14648 760.12305 L 501.01562 760.12305 L 501.01562 781.74609 L 479.39258 781.74609 L 479.39258 803.36914 L 457.76953 803.36914 L 457.76953 824.99219 L 436.14648 824.99219 L 436.14648 868.23633 L 565.88281 868.23633 L 565.88281 846.61523 L 501.01562 846.61523 L 501.01562 824.99219 L 522.63867 824.99219 L 522.63867 803.36914 L 544.26172 803.36914 L 544.26172 781.74609 L 565.88281 781.74609 L 565.88281 738.5 L 436.14648 738.5 z M 609.12891 738.5 L 609.12891 868.23633 L 738.86523 868.23633 L 738.86523 846.61523 L 652.375 846.61523 L 652.375 803.36914 L 717.24219 803.36914 L 717.24219 781.74609 L 652.375 781.74609 L 652.375 760.12305 L 738.86523 760.12305 L 738.86523 738.5 L 609.12891 738.5 z M 782.11133 738.5 L 782.11133 868.23633 L 911.84766 868.23633 L 911.84766 846.61523 L 825.35742 846.61523 L 825.35742 738.5 L 782.11133 738.5 z M 133.42773 760.12305 L 176.67383 760.12305 L 176.67383 803.36914 L 133.42773 803.36914 L 133.42773 760.12305 z " inkscape:radius="0" sodipodi:type="inkscape:offset" class="st2" d="
		M55.2,541.8v79.4h26.5v-26.5h13.2v13.2h13.2v-13.2h13.2v-13.2h13.2V555h-13.2v-13.2H55.2z M108.1,607.9v13.2h26.5v-13.2H108.1z
		 M161.1,541.8v79.4h79.4V608h-52.9v-26.5h39.7v-13.2h-39.7V555h52.9v-13.2H161.1z M266.9,541.8V555h39.7v13.2h-13.2v13.2h-13.2
		v13.2H267v26.5h79.4v-13.2h-39.7v-13.2h13.2v-13.2h13.2v-13.2h13.2v-26.5H266.9z M372.8,541.8v79.4h79.4V608h-52.9v-26.5H439v-13.2
		h-39.7V555h52.9v-13.2H372.8z M478.7,541.8v79.4h79.4V608h-52.9v-66.2H478.7z M81.7,555h26.5v26.5H81.7V555z"/>
</g>
</svg>
